<svg width="23" height="24" viewBox="0 0 23 24" fill="none" xmlns="http://www.w3.org/2000/svg">
<mask id="mask0_13_116" style="mask-type:luminance" maskUnits="userSpaceOnUse" x="0" y="0" width="23" height="24">
<path d="M22.3783 0H0V23.7225H22.3783V0Z" fill="white"/>
</mask>
<g mask="url(#mask0_13_116)">
<path d="M22.0516 12.2778C22.0516 11.4873 21.9866 10.7368 21.8752 10.0063H11.3813V14.5192H17.3898C17.1205 16.0002 16.3311 17.251 15.161 18.1015V21.1034H18.7456C20.8444 19.012 22.0516 15.9301 22.0516 12.2778Z" fill="#4285F4"/>
<path d="M11.381 24.0153C14.3899 24.0153 16.9065 22.9345 18.7452 21.1034L15.1607 18.1015C14.1577 18.822 12.8855 19.2623 11.381 19.2623C8.47433 19.2623 6.01336 17.1509 5.13111 14.2991H1.43506V17.3911C3.26452 21.3135 7.02559 24.0153 11.381 24.0153Z" fill="#34A853"/>
<path d="M5.13129 14.2991C4.89916 13.5786 4.77841 12.8081 4.77841 12.0075C4.77841 11.2071 4.90839 10.4366 5.13129 9.7161V6.62418H1.43525C0.673747 8.24518 0.237305 10.0664 0.237305 12.0075C0.237305 13.9488 0.673747 15.77 1.43525 17.391L5.13129 14.2991Z" fill="#FBBC05"/>
<path d="M11.381 4.753C13.0247 4.753 14.492 5.3634 15.6528 6.55414L18.8289 3.132C16.9065 1.19074 14.3898 0 11.381 0C7.02559 0 3.26452 2.70174 1.43506 6.6242L5.1311 9.71612C6.01335 6.86438 8.47433 4.753 11.381 4.753Z" fill="#EA4335"/>
</g>
</svg>
