<svg width="23" height="24" viewBox="0 0 23 24" fill="none" xmlns="http://www.w3.org/2000/svg">
<path d="M9.34291 23.6253C4.0281 22.6161 0 17.7486 0 11.872C0 5.34234 5.03511 0 11.1891 0C17.3432 0 22.3783 5.34234 22.3783 11.872C22.3783 17.7486 18.3502 22.6161 13.0353 23.6253L12.4199 23.091H9.95837L9.34291 23.6253Z" fill="url(#paint0_linear_13_117)"/>
<path d="M15.5533 15.1961L16.0568 11.872H13.0917V9.55694C13.0917 8.60715 13.4274 7.89486 14.7701 7.89486H16.2247V4.86747C15.4414 4.7488 14.5463 4.63004 13.763 4.63004C11.1895 4.63004 9.3993 6.29212 9.3993 9.26017V11.872H6.60205V15.1961H9.3993V23.5659C10.0147 23.6847 10.6301 23.744 11.2455 23.744C11.8609 23.744 12.4763 23.6846 13.0917 23.5659V15.1961H15.5533Z" fill="white"/>
<defs>
<linearGradient id="paint0_linear_13_117" x1="11.1898" y1="22.9178" x2="11.1898" y2="-0.00460983" gradientUnits="userSpaceOnUse">
<stop stop-color="#0062E0"/>
<stop offset="1" stop-color="#19AFFF"/>
</linearGradient>
</defs>
</svg>
