<svg width="23" height="24" viewBox="0 0 23 24" fill="none" xmlns="http://www.w3.org/2000/svg">
<mask id="mask0_13_118" style="mask-type:luminance" maskUnits="userSpaceOnUse" x="0" y="0" width="23" height="24">
<path d="M22.3783 0H0V23.7232H22.3783V0Z" fill="white"/>
</mask>
<g mask="url(#mask0_13_118)">
<path d="M21.2974 8.18243C21.1407 8.29045 18.3734 9.67539 18.3734 12.7549C18.3734 16.3168 21.8946 17.577 22 17.6082C21.9838 17.685 21.4406 19.3339 20.1435 21.0141C18.9869 22.4926 17.7789 23.9688 15.9414 23.9688C14.1037 23.9688 13.6308 23.0207 11.5094 23.0207C9.44208 23.0207 8.70708 24 7.0262 24C5.34532 24 4.17248 22.6318 2.82399 20.9517C1.26202 18.9787 0 15.9136 0 13.0045C0 8.33844 3.41579 5.8638 6.77756 5.8638C8.56387 5.8638 10.0528 6.90551 11.1744 6.90551C12.2418 6.90551 13.9064 5.80137 15.9386 5.80137C16.7088 5.80137 19.476 5.8638 21.2974 8.18243ZM14.9739 3.82596C15.8143 2.94032 16.4088 1.71139 16.4088 0.482456C16.4088 0.312012 16.3926 0.139229 16.3575 0C14.9901 0.0455848 13.3633 0.808906 12.3823 1.8194C11.6121 2.59703 10.8933 3.82596 10.8933 5.07173C10.8933 5.25889 10.9284 5.44611 10.9446 5.50613C11.0311 5.52057 11.1717 5.53735 11.3122 5.53735C12.539 5.53735 14.0821 4.80765 14.9739 3.82596Z" fill="black"/>
</g>
</svg>
