<svg width="24" height="24" viewBox="0 0 24 24" fill="none" xmlns="http://www.w3.org/2000/svg">
<mask id="mask0_13_119" style="mask-type:luminance" maskUnits="userSpaceOnUse" x="0" y="0" width="24" height="24">
<path d="M23.3048 0H0.926514V23.7232H23.3048V0Z" fill="white"/>
</mask>
<g mask="url(#mask0_13_119)">
<path d="M23.3048 3.50023C22.4815 3.97663 21.5966 4.29847 20.668 4.44326C21.6158 3.70203 22.3439 2.52837 22.6866 1.12987C21.7995 1.8163 20.8169 2.3146 19.7711 2.58318C18.9336 1.41913 17.7404 0.69199 16.4199 0.69199C13.8844 0.69199 11.8286 3.37335 11.8286 6.68072C11.8286 7.15019 11.8693 7.6073 11.9476 8.04558C8.13184 7.7959 4.74893 5.41153 2.48443 1.78812C2.08926 2.6726 1.86276 3.7013 1.86276 4.79889C1.86276 6.87681 2.67334 8.70986 3.90526 9.78384C3.15268 9.75273 2.44473 9.48326 1.82574 9.03479C1.82524 9.05971 1.82524 9.08479 1.82524 9.11012C1.82524 12.0117 3.40782 14.4321 5.50813 14.9827C5.12288 15.1196 4.71727 15.1927 4.29856 15.1927C4.00277 15.1927 3.71522 15.155 3.43479 15.0853C4.01907 17.4646 5.71458 19.1961 7.72374 19.2442C6.1524 20.8506 4.17283 21.8081 2.02171 21.8081C1.65113 21.8081 1.28567 21.7796 0.926514 21.7243C2.95833 23.4237 5.37166 24.4152 7.9644 24.4152C16.4092 24.4152 21.0273 15.2895 21.0273 7.37504C21.0273 7.11542 21.0228 6.85719 21.014 6.60018C21.9109 5.75593 22.6893 4.70125 23.3048 3.50023Z" fill="#1DA1F2"/>
</g>
</svg>
